<?xml version="1.0" encoding="UTF-8"?>
<svg id="fl-legend-discrete-color-0-svg-screenshot-container" xmlns="http://www.w3.org/2000/svg" version="1.1" viewBox="0 0 1465 1073.31">
  <!-- Generator: Adobe Illustrator 30.5.1, SVG Export Plug-In . SVG Version: 2.1.4 Build 3)  -->
  <defs>
    <style>
      .st0, .st1, .st2, .st3 {
        fill: none;
      }

      .st0, .st3 {
        stroke: #eee;
        stroke-width: 2px;
      }

      .st4 {
        fill: #4a4a4a;
        font-size: 19.26px;
      }

      .st4, .st5 {
        font-family: ArialMT, Arial;
      }

      .st4, .st5, .st6 {
        isolation: isolate;
      }

      .st5 {
        font-size: 17.33px;
      }

      .st7, .st8 {
        fill-opacity: 0;
      }

      .st8 {
        fill: #eee;
      }

      .st6 {
        fill: #135ae1;
        fill-opacity: .9;
        opacity: .9;
      }

      .st2 {
        display: none;
        stroke: red;
      }

      .st3 {
        stroke-linecap: square;
      }
    </style>
  </defs>
  <rect class="st1" x="5.34" width="1459.66" height="1039.9"/>
  <rect class="st1" x="5.34" width="1459.66" height="1039.9"/>
  <polygon class="st8" points="5.34 0 5.34 0 5.34 0 5.34 0"/>
  <rect class="st2" x="5.34" width="1459.66" height="1039.9"/>
  <rect class="st1" x="5.34" y="4.81" width="1436.78" height="1035.08"/>
  <rect class="st7" x="5.34" y="4.81" width="1436.78" height="1035.08"/>
  <rect class="st1" x="5.34" y="4.81" width="1436.78" height="1035.08"/>
  <rect class="st1" x="3.34" y="2.81" width="1440.78" height="1039.1"/>
  <line class="st0" x1="5.34" y1="1039.9" x2="5.34" y2="4.81"/>
  <line class="st0" x1="135.96" y1="1039.9" x2="135.96" y2="4.81"/>
  <line class="st0" x1="266.57" y1="1039.9" x2="266.57" y2="4.81"/>
  <line class="st0" x1="397.19" y1="1039.9" x2="397.19" y2="4.81"/>
  <line class="st0" x1="527.8" y1="1039.9" x2="527.8" y2="4.81"/>
  <line class="st0" x1="658.42" y1="1039.9" x2="658.42" y2="4.81"/>
  <line class="st0" x1="789.04" y1="1039.9" x2="789.04" y2="4.81"/>
  <line class="st0" x1="919.65" y1="1039.9" x2="919.65" y2="4.81"/>
  <line class="st0" x1="1050.27" y1="1039.9" x2="1050.27" y2="4.81"/>
  <line class="st0" x1="1180.88" y1="1039.9" x2="1180.88" y2="4.81"/>
  <line class="st0" x1="1311.5" y1="1039.9" x2="1311.5" y2="4.81"/>
  <line class="st0" x1="1442.12" y1="1039.9" x2="1442.12" y2="4.81"/>
  <line class="st3" x1="5.34" y1="1039.9" x2="1442.12" y2="1039.9"/>
  <line class="st0" x1="5.34" y1="1039.9" x2="5.34" y2="1049.53"/>
  <text class="st4" transform="translate(0 1067.0541)"><tspan x="0" y="0">0</tspan></text>
  <line class="st0" x1="1311.5" y1="1039.9" x2="1311.5" y2="1049.53"/>
  <text class="st4" transform="translate(1295.4839 1067.0541)"><tspan x="0" y="0">500</tspan></text>
  <line class="st0" x1="1050.27" y1="1039.9" x2="1050.27" y2="1049.53"/>
  <text class="st4" transform="translate(1034.2515 1067.0541)"><tspan x="0" y="0">400</tspan></text>
  <line class="st0" x1="789.04" y1="1039.9" x2="789.04" y2="1049.53"/>
  <text class="st4" transform="translate(773.019 1067.0541)"><tspan x="0" y="0">300</tspan></text>
  <line class="st0" x1="527.8" y1="1039.9" x2="527.8" y2="1049.53"/>
  <text class="st4" transform="translate(511.7866 1067.0541)"><tspan x="0" y="0">200</tspan></text>
  <line class="st0" x1="266.57" y1="1039.9" x2="266.57" y2="1049.53"/>
  <text class="st4" transform="translate(250.5542 1067.0541)"><tspan x="0" y="0">100</tspan></text>
  <line class="st0" x1="135.96" y1="1039.9" x2="135.96" y2="1049.53"/>
  <text class="st4" transform="translate(125.2769 1067.0541)"><tspan x="0" y="0">50</tspan></text>
  <line class="st0" x1="1442.12" y1="1039.9" x2="1442.12" y2="1049.53"/>
  <text class="st4" transform="translate(1426.1001 1067.0541)"><tspan x="0" y="0">550</tspan></text>
  <line class="st0" x1="1180.88" y1="1039.9" x2="1180.88" y2="1049.53"/>
  <text class="st4" transform="translate(1164.8677 1067.0541)"><tspan x="0" y="0">450</tspan></text>
  <line class="st0" x1="919.65" y1="1039.9" x2="919.65" y2="1049.53"/>
  <text class="st4" transform="translate(903.6353 1067.0541)"><tspan x="0" y="0">350</tspan></text>
  <line class="st0" x1="658.42" y1="1039.9" x2="658.42" y2="1049.53"/>
  <text class="st4" transform="translate(642.4028 1067.0541)"><tspan x="0" y="0">250</tspan></text>
  <line class="st0" x1="397.19" y1="1039.9" x2="397.19" y2="1049.53"/>
  <text class="st4" transform="translate(381.1704 1067.0541)"><tspan x="0" y="0">150</tspan></text>
  <rect class="st1" x="5.34" y="4.81" width="1436.78" height="1035.08"/>
  <rect class="st1" x="5.34" y="4.81" width="1436.78" height="1035.08"/>
  <text class="st5" transform="translate(5.34 37.96)"><tspan x="0" y="0">Alex Bores winning the NY primary election by less than 5%?</tspan></text>
  <rect class="st1" x="5.34" y="4.81" width="1436.78" height="1035.08"/>
  <text class="st5" transform="translate(5.34 141.46)"><tspan x="0" y="0">The U.S. invading Iran before 2027?</tspan></text>
  <rect class="st1" x="5.34" y="4.81" width="1436.78" height="1035.08"/>
  <text class="st5" transform="translate(5.34 244.97)"><tspan x="0" y="0">Ronaldo crying at the World Cup?</tspan></text>
  <rect class="st1" x="5.34" y="4.81" width="1436.78" height="1035.08"/>
  <text class="st5" transform="translate(5.34 348.48)"><tspan x="0" y="0">Tyler Robinson convicted for the murder of Charlie Kirk?</tspan></text>
  <rect class="st1" x="5.34" y="4.81" width="1436.78" height="1035.08"/>
  <text class="st5" transform="translate(5.34 451.99)"><tspan x="0" y="0">Google having best AI model at the end of July 2026?</tspan></text>
  <rect class="st1" x="5.34" y="4.81" width="1436.78" height="1035.08"/>
  <text class="st5" transform="translate(5.34 555.5)"><tspan x="0" y="0">Russian parliamentary election outcome?</tspan></text>
  <rect class="st1" x="5.34" y="4.81" width="1436.78" height="1035.08"/>
  <text class="st5" transform="translate(5.34 659.01)"><tspan x="0" y="0">Brand of gloves worn by 2026 FIFA World Cup Golden Glove winner?</tspan></text>
  <rect class="st1" x="5.34" y="4.81" width="1436.78" height="1035.08"/>
  <text class="st5" transform="translate(5.34 762.51)"><tspan x="0" y="0">OpenAI releasing new model by September 30, 2026?</tspan></text>
  <rect class="st1" x="5.34" y="4.81" width="1436.78" height="1035.08"/>
  <text class="st5" transform="translate(5.34 866.02)"><tspan x="0" y="0">Pope Leo XIV being TIME&apos;s Person of the Year for 2025?</tspan></text>
  <rect class="st1" x="5.34" y="4.81" width="1436.78" height="1035.08"/>
  <text class="st5" transform="translate(5.34 969.53)"><tspan x="0" y="0">Alex Bores winning the NY primary election by more than 5%?</tspan></text>
  <rect class="st1" x="5.34" y="8.12" width="1436.78" height="1031.88"/>
  <path id="point-0-0" class="st6" d="M5.34,45.82h1410.65v48.52H5.34v-48.52Z" data-type="bar"/>
  <path id="point-0-1" class="st6" d="M5.34,149.01h1277.43v48.52H5.34v-48.52Z" data-type="bar"/>
  <path id="point-0-2" class="st6" d="M5.34,252.2h1191.22v48.52H5.34v-48.52Z" data-type="bar"/>
  <path id="point-0-3" class="st6" d="M5.34,355.39h950.89v48.52H5.34v-48.52Z" data-type="bar"/>
  <path id="point-0-4" class="st6" d="M5.34,458.57h801.98v48.52H5.34v-48.52Z" data-type="bar"/>
  <path id="point-0-5" class="st6" d="M5.34,561.76h794.15v48.52H5.34v-48.52Z" data-type="bar"/>
  <path id="point-0-6" class="st6" d="M5.34,664.95h616.51v48.52H5.34v-48.52Z" data-type="bar"/>
  <path id="point-0-7" class="st6" d="M5.34,768.14h514.63v48.52H5.34v-48.52Z" data-type="bar"/>
  <path id="point-0-8" class="st6" d="M5.34,871.33h491.12v48.52H5.34v-48.52Z" data-type="bar"/>
  <path id="point-0-9" class="st6" d="M5.34,974.52h478.06v48.52H5.34v-48.52Z" data-type="bar"/>
  <rect class="st1" x="5.34" y="8.12" width="1436.78" height="1031.88"/>
</svg>